<?xml version="1.0" standalone="no"?><!DOCTYPE svg PUBLIC "-//W3C//DTD SVG 1.1//EN" "http://www.w3.org/Graphics/SVG/1.1/DTD/svg11.dtd"><svg t="1591434556397" class="icon" viewBox="0 0 1024 1024" version="1.1" xmlns="http://www.w3.org/2000/svg" p-id="3280" xmlns:xlink="http://www.w3.org/1999/xlink" width="64" height="64"><defs><style type="text/css"></style></defs><path d="M480 64C214.848 64 0 278.848 0 544s214.848 480 480 480 480-214.848 480-480S745.152 64 480 64z m192 448c17.664 0 32 14.336 32 32s-14.336 32-32 32H512v128h160c17.664 0 32 14.336 32 32s-14.336 32-32 32H512v96c0 17.664-14.336 32-32 32s-32-14.336-32-32v-96H288c-17.664 0-32-14.336-32-32s14.336-32 32-32h160V576H288c-17.664 0-32-14.336-32-32s14.336-32 32-32h160v-20.992L265.024 308.032c-11.904-11.968-11.904-31.168 0-43.072s31.168-11.904 43.072 0l171.456 171.52 173.312-173.312c12.096-12.096 31.808-12.096 43.968 0s12.096 31.808 0 43.968L512 491.968V512h160z" p-id="3281"></path></svg>