<?xml version="1.0" standalone="no"?><!DOCTYPE svg PUBLIC "-//W3C//DTD SVG 1.1//EN" "http://www.w3.org/Graphics/SVG/1.1/DTD/svg11.dtd"><svg t="1591901914596" class="icon" viewBox="0 0 1024 1024" version="1.1" xmlns="http://www.w3.org/2000/svg" p-id="2732" xmlns:xlink="http://www.w3.org/1999/xlink" width="64" height="64"><defs><style type="text/css"></style></defs><path d="M395.6224 210.432h-148.224C209.6896 210.432 179.2 238.592 179.2 276.3008v150.4a65.664 65.664 0 0 0 65.92 65.8688h150.528a65.664 65.664 0 0 0 65.8944-65.8688v-150.4c0-37.7088-28.1856-65.8688-65.92-65.8688z m430.208 94.0544L719.872 198.6304a66.7136 66.7136 0 0 0-94.1312 0l-105.9072 105.856c-11.8272 11.776-18.688 28.16-18.688 46.848 0 18.6368 7.2448 35.3792 18.688 46.8224l105.9072 105.856c11.8272 11.776 28.2112 18.6624 46.8736 18.6624 18.688 0 35.4304-7.2448 46.848-18.688l105.9584-105.8304c11.8016-11.8272 18.688-28.1856 18.688-46.848 3.0208-18.6624-4.224-35.4048-18.304-46.848z m-32.768 58.624L687.104 468.992c-7.2448 7.2448-18.688 7.2448-28.2112 0l-105.9072-105.856c-7.2448-7.2192-7.2448-18.6624 0-28.16l105.9072-105.856c4.5824-4.5824 9.5232-4.5824 14.1056-4.5824 4.5824 0 9.5232 2.304 14.08 4.5824l105.9584 105.856c4.5568 4.5568 4.5568 9.4976 4.5568 14.08 2.304 6.8608 0 11.8016-4.5568 14.08z m-397.44 199.5264h-148.224a65.664 65.664 0 0 0-65.92 65.8688v150.4256A65.664 65.664 0 0 0 247.3984 844.8h148.224a65.664 65.664 0 0 0 65.92-65.8688v-150.4c0-37.3248-28.1856-65.8944-65.92-65.8944z m352.8448 0h-150.528a65.664 65.664 0 0 0-65.8944 65.8688v150.4256A65.664 65.664 0 0 0 597.9648 844.8h150.528a65.664 65.664 0 0 0 65.8944-65.8688v-150.4c-0.384-37.3248-28.5696-65.8944-65.92-65.8944z" p-id="2733"></path></svg>