<?xml version="1.0" standalone="no"?><!DOCTYPE svg PUBLIC "-//W3C//DTD SVG 1.1//EN" "http://www.w3.org/Graphics/SVG/1.1/DTD/svg11.dtd"><svg t="1592334064646" class="icon" viewBox="0 0 1024 1024" version="1.1" xmlns="http://www.w3.org/2000/svg" p-id="1021" xmlns:xlink="http://www.w3.org/1999/xlink" width="64" height="64"><defs><style type="text/css"></style></defs><path d="M117.76 425.927111l0 0.113778c0 18.60266699 6.769778 36.295111 18.944 49.664a65.991111 65.991111 0 0 0 44.544 22.072889c0.227556 0 0.398222 0 0.51200001 0.113778l1.02399999 0.22755499 1.137778 0.05688901 54.954666 0a6.712889 6.712889 0 0 1 6.71288899 6.712889L245.589333 766.69155599c0 27.875556 7.111111 49.493333 21.048889 64.28444401 14.05155599 14.791111 34.702222 22.357333 61.326222 22.357333l371.484445 0c26.851556 0 46.87644401-7.224889 61.212444-22.186666 14.336-15.132444 21.333333-36.181333 21.333334-64.455111l0-261.802667a6.712889 6.712889 0 0 1 6.712889-6.712889l53.418666 0c6.37155599 0 12.572444-0.967111 18.602667-3.015111 13.653333-4.380444 26.112-13.425778 34.87288899-25.6a74.638222 74.638222 0 0 0-3.18577799-90.624l-0.398222-0.39822201-295.765334-274.43199999-1.194666-1.137778c-24.746667-20.081778-51.370667-29.98044401-81.464889-29.980445-32.028444 0-60.700444 10.922667-82.944 31.459556l-294.855111 273.351111-0.568889 0.62577799-1.365333 1.64977801a73.955556 73.955556 0 0 0-16.042667 45.852444zM726.243556 437.475556a6.712889 6.712889 0 0 0-6.712889 6.712888l0 317.44c0 15.75822201-3.128889 22.35733299-5.802667 25.088-2.503111 2.787556-8.704 5.916444-23.552 5.916445l-352.711111 0c-14.791111 0-20.935111-3.242667-23.495111-5.916445-2.616889-2.730667-5.688889-9.329778-5.688889-25.08800001l0-317.32622199c0-3.754667-3.015111-6.712889-6.712889-6.712889l-104.903111 0-1.649778-0.113777-9.671111 0c-4.152889-0.170667-4.949333-1.479111-4.949333-13.880889l0-2.56c0-3.413333 1.137778-6.257778 2.332444-8.248889a4.551111 4.551111 0 0 1 1.194667-1.536l281.941333-261.12c12.62933301-11.662222 28.672-17.521778 47.786667-17.521778 11.20711101 0 28.273778 1.820444 47.900444 17.464889l0.398222 0.284444 281.315556 260.323556 1.024 1.194667a17.066667 17.066667 0 0 1 2.673778 9.102222 16.497778 16.497778 0 0 1-10.012445 15.303111l-0.910222 0-1.137778 0.512a6.030222 6.030222 0 0 1-2.275555 0.512l-106.382222 0 0 0.170667z" p-id="1022"></path><path d="M632.832 504.206222a28.273778 28.273778 0 0 0 28.216889-28.273778L661.048889 468.195556a20.48 20.48 0 0 0-20.48-20.48l-11.832889 0a7.68 7.68 0 0 1-6.599111-11.66222299l34.872889-58.82311101a14.734222 14.734222 0 0 0 1.422222-11.605333 22.186667 22.186667 0 0 0-10.865778-13.312l-13.653333-7.623111c-10.06933301-5.688889-21.731556-3.754667-26.510222 4.380444L551.253333 444.017778a7.68 7.68 0 0 1-6.599111 3.754666l-70.542222 0a7.566222 7.566222 0 0 1-6.599111-3.754666l-56.32-95.06133401c-4.721778-8.021333-16.611556-10.069333-26.567111-4.38044399l-13.653334 7.623111a22.186667 22.186667 0 0 0-10.80888799 13.312 14.734222 14.734222 0 0 0 1.36533299 11.605333l34.872889 58.93688901a7.68 7.68 0 0 1-6.599111 11.60533399l-11.776 0a20.593778 20.593778 0 0 0-20.536889 20.536889l0 15.473777c0 11.264 9.216 20.47999999 20.48 20.48L473.315556 504.149333c4.32355601 0 7.736889 3.527111 7.736888 7.793778l0 51.541333c0 4.266667-3.413333 7.736889-7.73688799 7.736889L385.763556 571.221333a28.273778 28.273778 0 0 0 0 56.490667l87.495111 0c4.32355601 0 7.736889 3.470222 7.736889 7.736889l0 100.864c0 15.530667 12.629333 28.273778 28.273777 28.273778l0.113778 0a28.16 28.16 0 0 0 28.16000001-28.16L537.543111 635.448889c0-4.266667 3.413333-7.736889 7.736889-7.736889l87.608889 0a28.16 28.16 0 0 0 28.16-28.15999999l0-7.73688901a20.536889 20.536889 0 0 0-20.48-20.48L545.223111 571.335111a7.736889 7.736889 0 0 1-7.736889-7.736889l0-51.655111c0-4.266667 3.413333-7.736889 7.73688901-7.736889l87.55199999 0z" p-id="1023"></path></svg>