<?xml version="1.0" standalone="no"?><!DOCTYPE svg PUBLIC "-//W3C//DTD SVG 1.1//EN" "http://www.w3.org/Graphics/SVG/1.1/DTD/svg11.dtd"><svg t="1592333952575" class="icon" viewBox="0 0 1024 1024" version="1.1" xmlns="http://www.w3.org/2000/svg" p-id="4963" data-spm-anchor-id="a313x.7781069.0.i0" xmlns:xlink="http://www.w3.org/1999/xlink" width="64" height="64"><defs><style type="text/css"></style></defs><path d="M906.24 598.072889v-0.113778c0-18.602667-6.769778-36.295111-18.944-49.664a65.991111 65.991111 0 0 0-44.544-22.072889c-0.227556 0-0.398222 0-0.512-0.113778l-1.024-0.227555-1.137778-0.056889h-54.954666a6.712889 6.712889 0 0 1-6.712889-6.712889V257.308444c0-27.875556-7.111111-49.493333-21.048889-64.284444-14.051556-14.791111-34.702222-22.357333-61.326222-22.357333h-371.484445c-26.851556 0-46.876444 7.224889-61.212444 22.186666-14.336 15.132444-21.333333 36.181333-21.333334 64.455111v261.802667a6.712889 6.712889 0 0 1-6.712889 6.712889h-53.418666c-6.371556 0-12.572444 0.967111-18.602667 3.015111-13.653333 4.380444-26.112 13.425778-34.872889 25.6a74.638222 74.638222 0 0 0 3.185778 90.624l0.398222 0.398222 295.765334 274.432 1.194666 1.137778c24.746667 20.081778 51.370667 29.980444 81.464889 29.980445 32.028444 0 60.700444-10.922667 82.944-31.459556l294.855111-273.351111 0.568889-0.625778 1.365333-1.649778a73.955556 73.955556 0 0 0 16.042667-45.852444zM297.756444 586.524444a6.712889 6.712889 0 0 0 6.712889-6.712888v-317.44c0-15.758222 3.128889-22.357333 5.802667-25.088 2.503111-2.787556 8.704-5.916444 23.552-5.916445h352.711111c14.791111 0 20.935111 3.242667 23.495111 5.916445 2.616889 2.730667 5.688889 9.329778 5.688889 25.088v317.326222c0 3.754667 3.015111 6.712889 6.712889 6.712889h104.903111l1.649778 0.113777h9.671111c4.152889 0.170667 4.949333 1.479111 4.949333 13.880889v2.56c0 3.413333-1.137778 6.257778-2.332444 8.248889a4.551111 4.551111 0 0 1-1.194667 1.536l-281.941333 261.12c-12.629333 11.662222-28.672 17.521778-47.786667 17.521778-11.207111 0-28.273778-1.820444-47.900444-17.464889l-0.398222-0.284444-281.315556-260.323556-1.024-1.194667a17.066667 17.066667 0 0 1-2.673778-9.102222 16.497778 16.497778 0 0 1 10.012445-15.303111h0.910222l1.137778-0.512a6.030222 6.030222 0 0 1 2.275555-0.512h106.382222v-0.170667z" p-id="4964" fill="#2c2c2c"></path><path d="M632.832 504.206222a28.273778 28.273778 0 0 0 28.216889-28.273778V468.195556a20.48 20.48 0 0 0-20.48-20.48h-11.832889a7.68 7.68 0 0 1-6.599111-11.662223l34.872889-58.823111a14.734222 14.734222 0 0 0 1.422222-11.605333 22.186667 22.186667 0 0 0-10.865778-13.312l-13.653333-7.623111c-10.069333-5.688889-21.731556-3.754667-26.510222 4.380444L551.253333 444.017778a7.68 7.68 0 0 1-6.599111 3.754666h-70.542222a7.566222 7.566222 0 0 1-6.599111-3.754666l-56.32-95.061334c-4.721778-8.021333-16.611556-10.069333-26.567111-4.380444l-13.653334 7.623111a22.186667 22.186667 0 0 0-10.808888 13.312 14.734222 14.734222 0 0 0 1.365333 11.605333l34.872889 58.936889a7.68 7.68 0 0 1-6.599111 11.605334h-11.776a20.593778 20.593778 0 0 0-20.536889 20.536889v15.473777c0 11.264 9.216 20.48 20.48 20.48H473.315556c4.323556 0 7.736889 3.527111 7.736888 7.793778v51.541333c0 4.266667-3.413333 7.736889-7.736888 7.736889H385.763556a28.273778 28.273778 0 0 0 0 56.490667h87.495111c4.323556 0 7.736889 3.470222 7.736889 7.736889v100.864c0 15.530667 12.629333 28.273778 28.273777 28.273778h0.113778a28.16 28.16 0 0 0 28.16-28.16V635.448889c0-4.266667 3.413333-7.736889 7.736889-7.736889h87.608889a28.16 28.16 0 0 0 28.16-28.16v-7.736889a20.536889 20.536889 0 0 0-20.48-20.48H545.223111a7.736889 7.736889 0 0 1-7.736889-7.736889v-51.655111c0-4.266667 3.413333-7.736889 7.736889-7.736889h87.552z" p-id="4965" fill="#2c2c2c"></path></svg>