<?xml version="1.0" standalone="no"?><!DOCTYPE svg PUBLIC "-//W3C//DTD SVG 1.1//EN" "http://www.w3.org/Graphics/SVG/1.1/DTD/svg11.dtd"><svg t="1592953785364" class="icon" viewBox="0 0 1024 1024" version="1.1" xmlns="http://www.w3.org/2000/svg" p-id="1179" xmlns:xlink="http://www.w3.org/1999/xlink" width="64" height="64"><defs><style type="text/css"></style></defs><path d="M959.030289 408.28587l-52.962236 51.79976L761.02361 316.202639l52.962236-51.79669c16.107863-16.108886 41.434691-18.423605 55.241139-4.612041l95.545076 93.248777C977.453894 366.836853 975.139176 392.163681 959.030289 408.28587L959.030289 408.28587 959.030289 408.28587 959.030289 408.28587 959.030289 408.28587zM735.715201 340.362898l146.193617 142.734842L534.26305 826.137607c-1.14815 1.147126-5.777587 5.755074-12.664438 6.903224-1.147126 0-1.147126 0-2.314719 1.147126l-181.868117 56.425104c-4.612041 1.14815-10.366092 1.14815-13.829983-2.314719-3.444449-3.444449-4.589528-8.052396-2.309602-13.823843l57.56916-178.428785c0-1.130753 0-1.130753 1.147126-2.292206 1.14815-5.777587 5.760191-12.664438 8.03807-13.829983l66.774823-61.001329L233.819326 618.922195c-9.217942 0-17.270339-10.380418-17.270339-18.418488 0-9.235338 8.052396-19.566638 17.270339-19.566638l255.550257 0L735.715201 340.362898 735.715201 340.362898 735.715201 340.362898 735.715201 340.362898zM489.369583 814.622342l-89.803305-88.623433-24.177656 74.830289 37.989219 37.985126L489.369583 814.622342 489.369583 814.622342 489.369583 814.622342 489.369583 814.622342zM731.104183 396.770606c-4.606925-4.589528-13.824867-4.589528-18.418488 0L439.847703 663.835104c-5.755074 4.593622-5.755074 13.811564 0 18.418488 4.611018 4.593622 13.829983 4.593622 18.422581 0l271.671423-267.060405C735.715201 410.582169 735.715201 402.529773 731.104183 396.770606L731.104183 396.770606 731.104183 396.770606 731.104183 396.770606 731.104183 396.770606zM124.449383 918.237211c-9.205663 0-18.405185-3.462868-18.405185-12.662391l0-727.509309c-1.149173-17.273409 10.366092-13.81054 23.011086-13.81054l63.316048 0 0 24.172539c0 9.222035 10.348696 17.274432 20.714787 17.274432 9.217942 0 20.732184-8.052396 20.732184-17.274432l0-24.172539 94.396927 0 0 24.172539c0 9.222035 10.348696 17.274432 20.714787 17.274432 9.217942 0 20.733207-8.052396 20.733207-17.274432l0-24.172539 86.340437 0 0 24.172539c0 9.222035 10.348696 17.274432 20.714787 17.274432 9.236362 0 20.733207-8.052396 20.733207-17.274432l0-24.172539 86.34453 0 0 24.172539c0 9.222035 10.366092 17.274432 20.733207 17.274432 9.199523 0 20.714787-8.052396 20.714787-17.274432l0-24.172539 72.516594 0c9.217942 0 14.973016 4.587482 14.973016 13.81054l0 119.719662 52.962236-51.800783 0-67.917856c0-37.988196-28.78458-65.611324-67.935252-65.611324l-73.664743 0L624.096031 67.542302c0-9.217942-10.366092-17.269315-20.733207-17.269315-9.199523 0-20.714787 8.051373-20.714787 17.269315l0 44.893466-86.34453 0L496.303506 67.542302c0-9.217942-10.348696-17.269315-20.732184-17.269315-9.218966 0-20.714787 8.051373-20.714787 17.269315l0 44.893466-86.34146 0L368.515075 67.542302c0-9.217942-10.367115-17.269315-20.732184-17.269315-9.218966 0-20.714787 8.051373-20.714787 17.269315l0 44.893466-94.39795 0L232.670154 67.542302c0-9.217942-10.365068-17.269315-20.732184-17.269315-9.217942 0-20.714787 8.051373-20.714787 17.269315l0 44.893466-62.167898 0c-51.79669 0-77.122495 27.623128-77.122495 65.612347l0 726.360136c0 37.971823 34.526351 65.60723 73.677023 65.60723l570.966996 0c39.137369 0 67.920926-27.635407 67.920926-65.60723L764.497735 653.451616l-52.962236 51.800783 0 200.286606c0 9.217942-5.755074 12.662391-14.95869 12.662391M576.840774 309.299415 232.670154 309.299415c-9.217942 0-16.107863 11.496845-16.107863 19.548218 0 9.222035 6.90834 19.571754 16.107863 19.571754l344.169597 0c9.236362 0 16.126282-11.515265 16.126282-19.571754C592.966033 320.79626 586.058716 309.299415 576.840774 309.299415L576.840774 309.299415 576.840774 309.299415 576.840774 309.299415 576.840774 309.299415zM576.840774 441.663048 232.670154 441.663048c-9.217942 0-16.107863 11.501962-16.107863 19.570731 0 9.217942 6.90834 19.549242 16.107863 19.549242l344.169597 0c9.236362 0 16.126282-11.515265 16.126282-19.549242C592.966033 453.16501 586.058716 441.663048 576.840774 441.663048L576.840774 441.663048 576.840774 441.663048 576.840774 441.663048 576.840774 441.663048zM576.840774 441.663048" p-id="1180"></path></svg>