<?xml version="1.0" standalone="no"?><!DOCTYPE svg PUBLIC "-//W3C//DTD SVG 1.1//EN" "http://www.w3.org/Graphics/SVG/1.1/DTD/svg11.dtd"><svg t="1591537757581" class="icon" viewBox="0 0 1024 1024" version="1.1" xmlns="http://www.w3.org/2000/svg" p-id="27703" xmlns:xlink="http://www.w3.org/1999/xlink" width="64" height="64"><defs><style type="text/css"></style></defs><path d="M658.286 475.429H365.714c-21.943 0-36.571-14.629-36.571-36.572s14.628-36.571 36.571-36.571h292.572c21.943 0 36.571 14.628 36.571 36.571s-14.628 36.572-36.571 36.572m-102.4 146.285H365.714c-21.943 0-36.571-14.628-36.571-36.571s14.628-36.572 36.571-36.572h190.172c21.943 0 36.571 14.629 36.571 36.572s-14.628 36.571-36.571 36.571m241.371-438.857h-84.114v-18.286c0-29.257-25.6-54.857-54.857-54.857s-54.857 25.6-54.857 54.857v18.286H420.57v-18.286c0-29.257-25.6-54.857-54.857-54.857s-54.857 25.6-54.857 54.857v18.286h-84.114c-29.257 0-54.857 21.943-54.857 51.2a8914.285 8914.285 0 0 0 0 625.372c0 29.257 25.6 51.2 54.857 51.2h570.514c29.257 0 54.857-21.943 54.857-51.2a8914.285 8914.285 0 0 0 0-625.372c0-29.257-25.6-51.2-54.857-51.2z" p-id="27704"></path></svg>