<?xml version="1.0" standalone="no"?><!DOCTYPE svg PUBLIC "-//W3C//DTD SVG 1.1//EN" "http://www.w3.org/Graphics/SVG/1.1/DTD/svg11.dtd"><svg t="1591430117774" class="icon" viewBox="0 0 1024 1024" version="1.1" xmlns="http://www.w3.org/2000/svg" p-id="5001" xmlns:xlink="http://www.w3.org/1999/xlink" width="64" height="64"><defs><style type="text/css"></style></defs><path d="M858.721036 1024H165.277989A43.934476 43.934476 0 0 1 121.879893 979.480381V178.078476c0-24.576 19.407238-44.519619 43.349334-44.519619h86.698666v44.519619c0 24.576 19.407238 44.519619 43.349334 44.519619h433.395809c23.942095 0 43.398095-19.943619 43.398095-44.519619V133.607619h86.649905c23.942095 0 43.349333 19.943619 43.349334 44.519619v801.401905a43.934476 43.934476 0 0 1-43.349334 44.519619zM479.450941 356.156952h-195.047619a32.963048 32.963048 0 0 0-32.475429 33.401905c0 18.432 14.531048 33.401905 32.475429 33.401905h195.047619A32.963048 32.963048 0 0 0 511.975131 389.558857a32.963048 32.963048 0 0 0-32.52419-33.401905z m260.096 155.843048H284.403322a32.963048 32.963048 0 0 0-32.475429 33.401905c0 18.432 14.531048 33.401905 32.475429 33.401905h455.143619a32.963048 32.963048 0 0 0 32.475429-33.401905 32.963048 32.963048 0 0 0-32.475429-33.401905z m0 155.843048H284.403322a32.963048 32.963048 0 0 0-32.475429 33.353142c0 18.480762 14.531048 33.401905 32.475429 33.401905h455.143619a32.963048 32.963048 0 0 0 32.475429-33.401905 32.963048 32.963048 0 0 0-32.475429-33.353142zM707.02275 178.078476H316.927512a21.942857 21.942857 0 0 1-21.650285-22.235428v-44.519619A21.942857 21.942857 0 0 1 316.927512 89.039238h108.348953C425.276465 39.887238 464.090941 0 511.975131 0s86.698667 39.887238 86.698667 89.039238H707.02275a21.942857 21.942857 0 0 1 21.650286 22.284191v44.519619a21.942857 21.942857 0 0 1-21.650286 22.235428zM511.975131 66.80381a21.942857 21.942857 0 0 0-21.650285 22.235428 21.942857 21.942857 0 0 0 21.650285 22.284191 21.942857 21.942857 0 0 0 21.650286-22.284191A21.942857 21.942857 0 0 0 511.975131 66.80381z" fill="#3A3A3A" p-id="5002"></path></svg>