<?xml version="1.0" standalone="no"?><!DOCTYPE svg PUBLIC "-//W3C//DTD SVG 1.1//EN" "http://www.w3.org/Graphics/SVG/1.1/DTD/svg11.dtd"><svg t="1591516519277" class="icon" viewBox="0 0 1024 1024" version="1.1" xmlns="http://www.w3.org/2000/svg" p-id="16603" xmlns:xlink="http://www.w3.org/1999/xlink" width="64" height="64"><defs><style type="text/css"></style></defs><path d="M793.216 761.184H1.248v-304.16l76.56-103.024H39.456c-21.088 0-38.224-17.376-38.224-38.672 0-21.328 17.104-38.672 38.224-38.672h76.688c5.936 0 11.376 1.536 16.256 3.904l98.736-132.736h562.064l98.832 132.736c4.8-2.352 10.336-3.904 16.24-3.904h76.624c21.152 0 38.256 17.328 38.256 38.672 0 21.28-17.056 38.672-38.256 38.672h-38.32l76.496 103.024V761.184H793.216zM103.376 457.008c0 28.512 22.928 51.568 51.088 51.568h76.672c28.224 0 51.136-23.04 51.136-51.568a51.28 51.28 0 0 0-51.136-51.44H154.464c-28.16-0.016-51.088 22.992-51.088 51.44z m653.12-257.664H263.088l-115.008 154.656h723.344l-114.928-154.656z m113.376 206.208h-76.656c-28.224 0-51.136 23.072-51.136 51.44 0 28.512 22.928 51.568 51.136 51.568h76.656c28.144 0 51.056-23.04 51.056-51.568 0.016-28.432-22.912-51.44-51.056-51.44zM1.248 782.288h252.288v125.6H1.248v-125.6z m769.504 0h252.336v125.6H770.752v-125.6z" p-id="16604"></path></svg>