<?xml version="1.0" standalone="no"?><!DOCTYPE svg PUBLIC "-//W3C//DTD SVG 1.1//EN" "http://www.w3.org/Graphics/SVG/1.1/DTD/svg11.dtd"><svg t="1591516214536" class="icon" viewBox="0 0 1024 1024" version="1.1" xmlns="http://www.w3.org/2000/svg" p-id="6757" xmlns:xlink="http://www.w3.org/1999/xlink" width="64" height="64"><defs><style type="text/css"></style></defs><path d="M392.313752 220.607726c93.908294 0 170.02882-25.51699 170.02882-57.039082 0-31.498634-76.119353-57.015624-170.02882-57.015624s-170.02882 25.51699-170.02882 57.015624c0.001173 31.523264 76.120526 57.039082 170.02882 57.039082z m0-220.607726c216.68799 0 392.313752 73.241127 392.313753 163.569817v696.838081c0 90.350975-175.625762 163.592102-392.313753 163.592102s-392.313752-73.241127-392.313752-163.592102v-696.838081c0-90.32869 175.625762-163.569817 392.313752-163.569817z m600.89251 244.07571c22.774817 0 38.071405 23.363598 28.983997 44.234844l-97.443328 223.781516a119.981225 119.981225 0 0 0 0 95.879891l97.443328 223.781516c9.087408 20.871246-6.208008 44.234845-28.983997 44.234845H825.715535V244.07571h167.490727z" p-id="6758"></path></svg>