<?xml version="1.0" standalone="no"?><!DOCTYPE svg PUBLIC "-//W3C//DTD SVG 1.1//EN" "http://www.w3.org/Graphics/SVG/1.1/DTD/svg11.dtd"><svg t="1591623937430" class="icon" viewBox="0 0 1024 1024" version="1.1" xmlns="http://www.w3.org/2000/svg" p-id="10690" xmlns:xlink="http://www.w3.org/1999/xlink" width="64" height="64"><defs><style type="text/css"></style></defs><path d="M634.788622 259.283882c-5.139989-5.254211-11.993307-8.223982-19.417735-8.223982-6.96754 0-13.706637 2.627105-18.732404 7.53865l-71.274512 68.761628-68.647407-68.533184c-5.139989-5.139989-11.879085-7.881316-19.075069-7.881316-7.195984 0-14.049303 2.855549-19.07507 7.881316-10.508422 10.508422-10.508422 27.641718 0 38.150139l70.01807 69.903849h-50.600334c-14.848857 0-26.956386 12.107529-26.956386 26.956386 0 14.848857 12.107529 26.956386 26.956386 26.956385h60.537646V454.603458h-60.537646c-14.848857 0-26.956386 12.107529-26.956386 26.956386 0 14.848857 12.107529 26.956386 26.956386 26.956386h60.537646v62.250976c0 14.848857 12.107529 26.956386 26.956386 26.956386 14.848857 0 26.956386-12.107529 26.956386-26.956386v-62.250976H613.429113c14.848857 0 26.956386-12.107529 26.956386-26.956386 0-14.848857-12.107529-26.956386-26.956386-26.956386h-60.994534v-33.809705H613.429113c14.848857 0 26.956386-12.107529 26.956386-26.956385 0-14.848857-12.107529-26.956386-26.956386-26.956386h-51.399888l72.074066-69.561183c10.736866-10.279978 10.96531-27.299052 0.685331-38.035917z" fill="#333333" p-id="10691"></path><path d="M887.104964 719.941104c-23.529727-9.708868-77.214055-31.525265-129.413497-51.856776l-3.083993-1.256442 2.284439-2.512883c28.098606-30.611489 50.143447-65.791857 65.449191-104.513107 15.305745-38.949693 23.187061-79.726938 23.187061-121.189515 0-184.125823-149.85923-333.985053-333.985053-333.985053S177.558059 254.486559 177.558059 438.612381c0 14.848857 0.913776 29.469269 2.741328 43.518573 1.71333 13.363971 13.363971 23.415505 26.956385 23.415504 1.14222 0 2.170218-0.114222 3.198216-0.228443 7.195984-0.913776 13.478193-4.568879 17.93285-10.279978 4.340435-5.711099 6.282209-12.792861 5.368432-19.988846-1.599108-11.879085-2.398661-24.215059-2.398661-36.551031 0-154.428109 125.644172-280.072281 280.072281-280.072282s280.072281 125.644172 280.072281 280.072282c0 78.013608-31.411043 150.544562-88.52203 204.000446-0.114222 0.114222-0.342666 0.456888-0.456888 0.685332-0.228444 0.456888-0.57111 1.027998-1.14222 1.484885l-1.027997 1.14222-1.370664-0.57111c-45.11768-16.79063-73.787395-26.156832-85.209593-27.870162-2.741327-0.456888-5.596877-0.685332-8.452426-0.685332-18.618182 0-35.751478 9.480424-46.945231 26.042611-10.622644 15.64841-13.249749 34.038148-7.195985 49.229671 3.312437 8.338204 15.534189 25.814166 35.979922 51.742554l2.969771 3.655103h-4.6831c-42.376352-0.114222-107.5971-5.711099-177.044061-32.553263-29.012381-11.193753-63.964306-48.315895-94.91846-81.097601l-0.228444-0.228444c-43.518572-46.145678-84.524261-89.892694-128.613943-89.892694-16.21952 0-31.525265 6.053765-44.432348 17.475962-16.105298 14.391969-31.068377 42.83324-10.3942 97.317122 38.721249 101.886001 189.380033 259.055438 310.11266 259.055438h436.899052c14.848857 0 26.956386-12.107529 26.956386-26.956386v-146.204127c0-10.3942-6.510653-20.103067-16.676408-24.329281z m-37.350586 144.148132H437.527273c-40.434579-1.027998-94.804239-30.268823-149.516565-80.526492-49.686559-45.68879-92.062911-102.000223-107.939765-143.691244-9.708868-25.585722-6.396431-35.979922-4.226213-37.807473 4.454657-3.883547 7.310206-3.883547 8.68087-3.883547 20.788399 0 60.423424 42.147909 89.321583 72.873619 36.551032 38.835471 74.358505 79.041606 114.907307 94.690017 77.670943 29.811935 150.087674 36.094144 197.261349 36.094144 38.264361 0 62.136754-4.111991 62.365198-4.111991 9.480424-1.599108 17.475962-8.223982 20.7884-17.36174 3.312437-9.023536 1.599108-19.303514-4.683101-26.61372-23.187061-27.527496-53.341662-65.334969-61.679866-78.242053l-0.685332-1.142219 0.228444-0.456888-5.596877-4.340435 8.68087 1.370663c23.529727 3.540881 169.162744 61.3372 242.950139 91.37758l1.370664 0.57111v101.200669z" fill="#333333" p-id="10692"></path></svg>