<?xml version="1.0" standalone="no"?><!DOCTYPE svg PUBLIC "-//W3C//DTD SVG 1.1//EN" "http://www.w3.org/Graphics/SVG/1.1/DTD/svg11.dtd"><svg t="1591516096008" class="icon" viewBox="0 0 1024 1024" version="1.1" xmlns="http://www.w3.org/2000/svg" p-id="2774" xmlns:xlink="http://www.w3.org/1999/xlink" width="64" height="64"><defs><style type="text/css"></style></defs><path d="M968.024639 769.022795c-0.877997-0.883113-1.757017-1.727341-2.671852-2.548032L749.846548 573.659315c-13.644765-12.172227-34.589796-11.032264-46.800909 2.610454-12.198833 13.628392-11.019984 34.57854 2.619664 46.784536l215.506239 192.82568c25.097608 25.085328 25.097608 65.741283 0 90.828658-12.555967 12.559037-29.005614 18.824741-45.446052 18.824741s-32.891108-6.261611-45.423539-18.824741L637.462968 691.207521c-12.196787-13.642718-33.142841-14.774495-46.786583-2.578732-13.600763 12.19781-14.774495 33.113165-2.577708 46.755884l192.803167 215.496006c0.854461 0.911766 1.665942 1.822508 2.543939 2.675946 24.63405 24.661679 57.423851 38.237883 92.276636 38.237883 34.880415 0 67.63747-13.577227 92.300172-38.237883C1018.895237 902.69012 1018.895237 819.886229 968.024639 769.022795" p-id="2775"></path><path d="M980.588793 77.461209c-20.511149-20.538779-47.818075-31.861662-76.871785-31.861662-16.249079 0-32.302707 3.664459-46.896076 10.607592-59.586097 20.849864-198.072171 71.721485-298.298873 127.396505-10.290367 5.712095-19.75288 11.429307-28.843932 17.136286-3.650133-5.783727-8.131191-11.07115-13.434987-15.609513L332.79299 28.218692C319.835887 17.134239 303.854914 11.627828 287.902594 11.627828c-17.724687 0-35.407418 6.794753-48.840358 20.228717l-32.213679 32.205493c-9.592472 9.591449-15.772218 21.35947-18.567891 33.737382-12.380982 2.752694-24.139793 8.971325-33.732266 18.534122l-19.078521 19.116383-19.089777 19.078521c-9.54847 9.553587-15.772218 21.286816-18.525935 33.664727-12.386098 2.744507-24.12342 8.942673-33.715893 18.534122l-32.301683 32.305777c-25.50386 25.543769-27.078729 66.421782-3.540639 93.831039l203.892737 237.513462c0.372483 0.405229 0.748037 0.843204 1.154289 1.258667 2.4017 2.65855 21.973454 23.901363 53.341882 45.924959L77.444325 826.795593C56.901453 847.295486 45.612339 874.611621 45.612339 903.654075c0 29.036313 11.33107 56.342216 31.831986 76.890204 20.540825 20.537755 47.856961 31.828916 76.895321 31.828916 29.045523 0 56.361659-11.290137 76.865645-31.828916L980.617445 231.17408C1022.961856 188.804087 1022.961856 119.840412 980.588793 77.461209L980.588793 77.461209 980.588793 77.461209zM287.902594 80.691787l183.448102 156.914796c-21.219277 19.694551-38.60218 39.178301-51.662637 55.225789L255.687892 112.89728 287.902594 80.691787 287.902594 80.691787 287.902594 80.691787zM284.603455 525.382798 80.709695 287.87036l32.269961-32.305777L298.276872 424.585091l25.572422-25.578562L165.222507 203.363687l19.087731-19.082614 19.078521-19.11229L396.42217 320.991712l6.501064-6.494924c-7.517207 10.264784-11.429307 16.525372-11.429307 16.525372l0 181.739181-55.022151 55.024198C304.518017 547.363416 284.603455 525.382798 284.603455 525.382798L284.603455 525.382798 284.603455 525.382798zM931.749458 182.376701 182.368002 931.706991c-7.720845 7.720845-17.892509 11.596106-28.02938 11.596106-10.169617 0-20.300348-3.875261-28.053939-11.596106-15.471366-15.513322-15.471366-40.608883 0-56.07411l248.13231-248.115937c4.453429-2.76395 8.682753-6.003737 12.516058-9.845229l53.397141-53.363372c3.816932-3.807722 7.066953-8.054443 9.858532-12.56927l10.377348-10.375302L460.566072 356.938412c0 0 29.220508-56.146764 131.48973-112.976074 100.604302-55.874565 247.15403-108.478643 292.004517-124.097366 6.093788-3.459798 12.860912-5.196349 19.656689-5.196349 10.146081 0 20.306488 3.875261 28.033473 11.628852C947.255617 141.766794 947.255617 166.872588 931.749458 182.376701L931.749458 182.376701 931.749458 182.376701zM931.749458 182.376701" p-id="2776"></path></svg>