<?xml version="1.0" standalone="no"?><!DOCTYPE svg PUBLIC "-//W3C//DTD SVG 1.1//EN" "http://www.w3.org/Graphics/SVG/1.1/DTD/svg11.dtd"><svg t="1591516487998" class="icon" viewBox="0 0 1024 1024" version="1.1" xmlns="http://www.w3.org/2000/svg" p-id="15801" xmlns:xlink="http://www.w3.org/1999/xlink" width="64" height="64"><defs><style type="text/css"></style></defs><path d="M64 960c0 35.2 28.8 64 64 64h320V512H64v448zM576 1024h320c35.2 0 64-28.8 64-64V512H576v512zM960 192H718.833067A127.349333 127.349333 0 0 0 736 128c0-70.692267-57.307733-128-128-128-38.242133 0-72.546133 16.791467-96 43.381333C488.546133 16.791467 454.242133 0 416 0c-70.692267 0-128 57.307733-128 128a127.349333 127.349333 0 0 0 17.166933 64H64c-35.2 0-64 28.8-64 64v128c0 35.2 28.8 64 64 64h384v-192h128v192h384c35.2 0 64-28.8 64-64v-128c0-35.2-28.8-64-64-64z m-480 0h-64c-35.2896 0-64-28.7104-64-64s28.7104-64 64-64 64 28.7104 64 64v64z m64 0V128c0-35.2896 28.7104-64 64-64s64 28.7104 64 64-28.7104 64-64 64h-64z" fill="" p-id="15802"></path></svg>