<?xml version="1.0" standalone="no"?><!DOCTYPE svg PUBLIC "-//W3C//DTD SVG 1.1//EN" "http://www.w3.org/Graphics/SVG/1.1/DTD/svg11.dtd"><svg t="1591516391309" class="icon" viewBox="0 0 1024 1024" version="1.1" xmlns="http://www.w3.org/2000/svg" p-id="10828" xmlns:xlink="http://www.w3.org/1999/xlink" width="64" height="64"><defs><style type="text/css"></style></defs><path d="M230.848 962.656H793.6c60.864 0 96.416-34.304 96.416-94.72V476.64l55.264 50.592c9.024 8.576 18.88 14.56 30.88 14.56 20.128 0 36.416-12.448 36.416-32.992 0-12.864-4.704-20.992-12.864-28.288l-148.704-135.872V92.256c0-18.848-12-30.88-30.848-30.88h-56.128c-18.432 0-31.296 12-31.296 30.88V237.12l-169.28-154.304c-15.008-13.728-32.992-21.408-51.424-21.408s-36.416 7.712-51.424 21.408L24.32 480.544c-7.712 7.296-12.864 15.424-12.864 28.288 0 20.576 16.288 32.992 36.416 32.992 12.448 0 22.304-5.984 30.88-14.56l55.264-50.144v390.848c0 60.416 35.584 94.72 96.864 94.72z m404.576-353.568c0-19.712-12.864-32.16-32.576-32.16H421.12c-19.712 0-32.992 12.448-32.992 32.16v284.544h-142.72c-27.424 0-42.432-15.008-42.432-42.848V414.08l294.016-267.84c4.288-4.288 9.408-6.848 15.008-6.848s10.72 2.144 15.424 6.848l293.568 267.872v436.704c0 27.872-15.008 42.848-41.984 42.848h-143.584z" p-id="10829"></path></svg>