<?xml version="1.0" standalone="no"?><!DOCTYPE svg PUBLIC "-//W3C//DTD SVG 1.1//EN" "http://www.w3.org/Graphics/SVG/1.1/DTD/svg11.dtd"><svg t="1591516474287" class="icon" viewBox="0 0 1024 1024" version="1.1" xmlns="http://www.w3.org/2000/svg" p-id="15050" xmlns:xlink="http://www.w3.org/1999/xlink" width="64" height="64"><defs><style type="text/css"></style></defs><path d="M344.064 239.616c16.896 0 30.72-13.824 30.72-30.72V138.24c0-9.216 3.584-14.336 5.632-15.872h262.656c1.536 1.536 5.632 7.168 5.632 15.872v70.656c0 16.896 13.824 30.72 30.72 30.72s30.72-13.824 30.72-30.72V138.24c0-43.52-29.184-77.824-66.048-77.824H379.392c-37.376 0-66.048 34.304-66.048 77.824v70.656c0 16.896 13.824 30.72 30.72 30.72zM897.536 292.864H126.464C70.656 292.864 25.6 337.92 25.6 393.216v469.504c0 55.808 45.056 100.864 100.864 100.864h771.584c55.808 0 100.864-45.056 100.864-100.864V393.216c-0.512-55.296-45.568-100.352-101.376-100.352z m-276.992 385.024h-71.168v71.168c0 20.48-16.896 37.376-37.376 37.376s-37.376-16.896-37.376-37.376v-71.168H403.456c-20.48 0-37.376-16.896-37.376-37.376s16.896-37.376 37.376-37.376h71.168v-71.168c0-20.48 16.896-37.376 37.376-37.376s37.376 16.896 37.376 37.376v71.168h71.168c20.48 0 37.376 16.896 37.376 37.376s-16.896 37.376-37.376 37.376z" p-id="15051"></path></svg>