<?xml version="1.0" standalone="no"?><!DOCTYPE svg PUBLIC "-//W3C//DTD SVG 1.1//EN" "http://www.w3.org/Graphics/SVG/1.1/DTD/svg11.dtd"><svg t="1591516454554" class="icon" viewBox="0 0 1024 1024" version="1.1" xmlns="http://www.w3.org/2000/svg" p-id="14223" xmlns:xlink="http://www.w3.org/1999/xlink" width="64" height="64"><defs><style type="text/css"></style></defs><path d="M868.4 602.3l-54.9 95.2-54.9-95.2c-24.7 10-46.2 26-62.9 46.3-16.4-58.7-59.3-106.2-115.1-128.8l-68 117.8-68-117.8c-58.6 23.8-103.1 75.1-117.4 137.9-17.4-24.5-41.5-43.9-69.8-55.3l-54.9 95.2-54.9-95.2C89.7 625.9 48.8 682.7 48.8 749v187h307.5v-3.2h303.5v3.2h307.5V748.9c-0.1-66.4-41-123.1-98.9-146.6z" fill="#C3C5CC" p-id="14224"></path><path d="M212.2 570.3c65.7 0 122.6-44.5 138.3-108.3 2.9-11.8-4.3-23.7-16.1-26.6-11.8-2.9-23.7 4.3-26.6 16.1-10.9 44.1-50.2 74.8-95.6 74.8-54.3 0-98.5-44.2-98.5-98.5s44.2-98.5 98.5-98.5c18.7 0 37.1 5.3 52.9 15.4 10.2 6.5 23.8 3.5 30.3-6.7s3.5-23.8-6.7-30.3c-22.8-14.6-49.4-22.3-76.5-22.3-78.5 0-142.4 63.9-142.4 142.4 0 78.6 63.9 142.5 142.4 142.5zM675.2 461c15.7 63.7 72.6 108.3 138.3 108.3 78.5 0 142.4-63.9 142.4-142.4S892 284.5 813.5 284.5c-27.1 0-53.7 7.7-76.5 22.3-10.2 6.5-13.2 20.1-6.7 30.3 6.5 10.2 20.1 13.2 30.3 6.7 15.8-10.1 34.1-15.4 52.9-15.4 54.3 0 98.5 44.2 98.5 98.5s-44.2 98.5-98.5 98.5c-45.4 0-84.8-30.8-95.6-74.8-2.9-11.8-14.8-19-26.6-16.1-11.8 2.8-19 14.7-16.1 26.5zM512.6 477.6c94.3 0 171.1-76.7 171.1-171.1 0-94.3-76.7-171.1-171.1-171.1s-171.1 76.7-171.1 171.1c0 94.4 76.8 171.1 171.1 171.1z m0-298.1c70.1 0 127.1 57 127.1 127.1s-57 127.1-127.1 127.1-127.1-57-127.1-127.1 57-127.1 127.1-127.1z" fill="#5C5E60" p-id="14225"></path><path d="M887.7 580.9c-10.2-4.1-21.8-0.1-27.3 9.4l-35.9 62.2-35.9-62.2a22.01 22.01 0 0 0-27.3-9.4c-20.4 8.3-38.6 19.9-54.1 34 6.7 15.5 11.5 31.9 14.4 48.8 10.6-13.5 23.8-25 39.1-33.9l44.7 77.5c3.9 6.8 11.2 11 19 11 7.8 0 15.1-4.2 19-11l44.7-77.5c41.9 24.1 68 68.6 68 117.9v165.2H724.8V703.4c0-89.1-53.4-168.3-136-201.8-10.2-4.1-21.8-0.1-27.3 9.4l-49 84.8-49-84.8a22.01 22.01 0 0 0-27.3-9.4c-82.6 33.5-136 112.7-136 201.8v206.3H78.7V744.6c0-49.3 26.2-93.8 68-117.9l44.7 77.5c3.9 6.8 11.2 11 19 11 7.8 0 15.1-4.2 19-11l44.7-77.5c12.1 7 22.9 15.7 32.1 25.7 3.5-14.9 8.6-29.2 15.1-42.8-14.1-11.7-30.1-21.4-47.8-28.5-10.2-4.1-21.8-0.1-27.3 9.4l-35.9 62.2-35.9-62.2a22.01 22.01 0 0 0-27.3-9.4c-68.4 27.7-112.5 93.3-112.5 167V935c0 12.1 9.8 22 22 22h921.6c12.1 0 22-9.8 22-22V747.9c0-73.7-44.2-139.2-112.5-167zM680.9 913.1H344.3V703.4c0-64.7 35.3-122.9 91.4-153l57.9 100.3c3.9 6.8 11.2 11 19 11 7.8 0 15.1-4.2 19-11l57.9-100.3c56.1 30.1 91.4 88.3 91.4 153v209.7z" fill="#5C5E60" p-id="14226"></path><path d="M754.8 130.3c-28.3 0-51.3-23-51.3-51.3 0-28.3 22.9-51.3 51.3-51.3 28.3 0 51.3 22.9 51.4 51.3-0.1 28.3-23.1 51.3-51.4 51.3z m0-77c-10.4 0-19.7 6.3-23.7 15.9-4 9.6-1.8 20.6 5.6 28 7.4 7.3 18.4 9.5 28 5.5 9.6-4 15.8-13.4 15.8-23.7-0.1-14.2-11.6-25.7-25.7-25.7z m0 0" fill="#C3C5CC" p-id="14227"></path><path d="M884.5 154.4h25.7v77h-25.7v-77z m0 0" fill="#C3C5CC" p-id="14228"></path><path d="M858.8 182.6h77v25.7h-77z" fill="#C3C5CC" p-id="14229"></path><path d="M209.5 64.8h25.7v77h-25.7z" fill="#C3C5CC" p-id="14230"></path><path d="M183.8 90.5h77v25.7h-77z" fill="#C3C5CC" p-id="14231"></path></svg>