<?xml version="1.0" standalone="no"?><!DOCTYPE svg PUBLIC "-//W3C//DTD SVG 1.1//EN" "http://www.w3.org/Graphics/SVG/1.1/DTD/svg11.dtd"><svg t="1591516140523" class="icon" viewBox="0 0 1026 1024" version="1.1" xmlns="http://www.w3.org/2000/svg" p-id="4580" xmlns:xlink="http://www.w3.org/1999/xlink" width="64.125" height="64"><defs><style type="text/css"></style></defs><path d="M851.911111 408.177778c-14.222222-17.066667-35.555556-28.444444-58.311111-28.444444L226.133333 379.733333c-22.755556 0-44.088889 11.377778-58.311111 28.444444-14.222222 17.066667-19.911111 39.822222-15.644444 62.577778l59.733333 356.977778c7.111111 44.088889 48.355556 76.8 93.866667 76.8l409.6 0c45.511111 0 85.333333-32.711111 93.866667-76.8L867.555556 469.333333C871.822222 446.577778 866.133333 423.822222 851.911111 408.177778L851.911111 408.177778zM342.755556 604.444444c-29.866667 0-55.466667-24.177778-55.466667-55.466667 0-29.866667 24.177778-55.466667 55.466667-55.466667 29.866667 0 55.466667 24.177778 55.466667 55.466667C398.222222 578.844444 374.044444 604.444444 342.755556 604.444444L342.755556 604.444444zM675.555556 604.444444c-29.866667 0-55.466667-24.177778-55.466667-55.466667 0-29.866667 24.177778-55.466667 55.466667-55.466667 29.866667 0 55.466667 24.177778 55.466667 55.466667C731.022222 578.844444 706.844444 604.444444 675.555556 604.444444L675.555556 604.444444zM675.555556 604.444444" p-id="4581"></path><path d="M704 352.711111c-15.644444 0-27.022222-12.8-27.022222-27.022222 0-79.644444-88.177778-137.955556-167.822222-137.955556-81.066667 0-163.555556 51.2-163.555556 137.955556 0 15.644444-12.8 27.022222-27.022222 27.022222-15.644444 0-27.022222-12.8-27.022222-27.022222 0-120.888889 110.933333-193.422222 219.022222-193.422222 105.244444 0 221.866667 79.644444 221.866667 193.422222C731.022222 341.333333 719.644444 352.711111 704 352.711111L704 352.711111zM704 352.711111" p-id="4582"></path><path d="M167.822222 864.711111" p-id="4583"></path><path d="M830.577778 846.222222" p-id="4584"></path></svg>