<?xml version="1.0" standalone="no"?><!DOCTYPE svg PUBLIC "-//W3C//DTD SVG 1.1//EN" "http://www.w3.org/Graphics/SVG/1.1/DTD/svg11.dtd"><svg t="1591516321915" class="icon" viewBox="0 0 1024 1024" version="1.1" xmlns="http://www.w3.org/2000/svg" p-id="8759" xmlns:xlink="http://www.w3.org/1999/xlink" width="64" height="64"><defs><style type="text/css"></style></defs><path d="M1019.2 332.416l-19.152-23.456a8.672 8.672 0 0 1-3.44-2.512c-15.76-17.6-104.544-38.4-133.808-124.656-28.224-83.12-72.08-126.144-75.232-129.168-18.304-10.704-30.464 16.752-34.496 27.808l-1.44 4.304-0.032 0.096-46.464 137.392c-22.304 65.584-64.336 42.88-64.336 42.88l0.096 0.128c-94.944-42.064-211.984-28.992-300.752 43.68-85.488 70-121.872 176.688-104.32 275.024 0.112 0.88 0.112 1.552 0.24 2.496 5.792 45.248-17.6 56.064-29.392 58.624l-6.368 0.8h-0.032L34.928 667.056l-0.016 0.032-10.832 1.376c-14.544 2.912-35.984 11.84-13.488 39.36l8.976 10.96c5.776 6.944 29.312 32.72 68.384 45.936 45.36 15.328 35.616 81.056 80 135.264l52.736 64.416s27.552 29.44 46.944-15.84l64.736-151.568c5.152-9.728 20.752-28.656 60.896-14.192 0.784 0.288 1.312 0.384 2.032 0.624 94.112 39.632 208.768 25.92 296.064-45.568 93.008-76.16 127.872-195.68 98.352-300.704l0.272 0.016s-16.176-31.232 56.56-46.416l153.504-31.936c14.416-4.112 30.864-12.144 19.152-26.4zM327.584 677.44c-77.248-94.336-63.36-234.192 28.912-319.36-19.92 74.432-43.392 250.48 117.152 399.072-55.76-7.008-108.384-33.696-146.064-79.712z m358.016-0.528c2.336-60.08-17.696-206.736-122.848-381.344 51.888 8.912 100.336 35.104 135.664 78.272 72.56 88.496 64.704 217.168-12.816 303.072z" fill="#241F20" p-id="8760"></path></svg>