<?xml version="1.0" standalone="no"?><!DOCTYPE svg PUBLIC "-//W3C//DTD SVG 1.1//EN" "http://www.w3.org/Graphics/SVG/1.1/DTD/svg11.dtd"><svg t="1591516286772" class="icon" viewBox="0 0 1024 1024" version="1.1" xmlns="http://www.w3.org/2000/svg" p-id="7841" xmlns:xlink="http://www.w3.org/1999/xlink" width="64" height="64"><defs><style type="text/css"></style></defs><path d="M693.636 258.308c61.237 0 110.885-49.65 110.885-110.892 0-61.235-49.649-110.884-110.885-110.884-61.249 0-110.896 49.649-110.896 110.884-0.008 61.242 49.647 110.892 110.896 110.892z" p-id="7842"></path><path d="M876.038 226.377c-63.676 89.182-148.934 99.508-240.682 45.047-6.245-3.707-33.955-18.973-40.088-22.62C447.672 161.193 300.255 195.55 201.393 334c-42.015 58.888 55.15 114.701 96.691 56.5 51.08-71.528 116.036-92.228 187.07-69.57-36.374 63.133-68.173 125.885-113.048 215.04-44.88 89.159-143.98 160.358-239.197 104.667-68.707-40.152-130.668 58.551-62.166 98.581 129.994 75.98 282.418 29.325 360.231-69.434 2.698 1.438 5.553 2.745 8.678 3.837 63.57 22.145 146.897 81.105 172.285 102.004 25.382 20.896 68.998 127.35 94.893 180.837 31.415 64.903 132.877 17.633 101.342-47.545-29.353-60.684-78.632-181.8-117.062-212.445-30.83-24.578-90.687-70.315-141.457-96.264 34.35-66.531 70.112-132.335 107.76-197.008 119.998 36.765 234.054-6.548 315.29-120.334 42.048-58.88-55.095-114.696-96.665-56.488z" p-id="7843"></path></svg>