<?xml version="1.0" standalone="no"?><!DOCTYPE svg PUBLIC "-//W3C//DTD SVG 1.1//EN" "http://www.w3.org/Graphics/SVG/1.1/DTD/svg11.dtd"><svg t="1591516369624" class="icon" viewBox="0 0 1149 1024" version="1.1" xmlns="http://www.w3.org/2000/svg" p-id="9798" xmlns:xlink="http://www.w3.org/1999/xlink" width="71.8125" height="64"><defs><style type="text/css"></style></defs><path d="M723.536842 241.160982L515.089965 134.736842 469.602807 111.526175 263.365614 6.287719c-20.372211-11.910737-44.642807-6.647018-56.427789 14.012632-11.767018 20.659649-2.874386 41.175579 13.797052 60.811228l271.306105 318.895158a6076.559719 6076.559719 0 0 0-258.01207 201.404631 42.882246 42.882246 0 0 0-3.143859-1.113824l-179.595228-55.008562a30.72 30.72 0 0 0-31.151158 50.625123c42.684632 44.588912 72.66807 82.027789 89.914386 112.280702 17.138526 30.073263 34.007579 74.68014 50.607158 133.838597a30.468491 30.468491 0 0 0 59.014736-1.365334l27.162948-117.454596a111.023158 111.023158 0 0 0 14.353965-7.060211S1241.986246 289.235088 1142.694175 129.05993c-52.170105-84.165614-231.028772-5.694877-419.157333 112.101052z m95.806877 284.618106l-169.498947 97.998596a35.929825 35.929825 0 0 0-16.258246 41.94807l99.43579 313.972772c8.587228 25.977263 19.042807 43.115789 42.576842 43.097825 23.552-0.017965 42.648702-19.348211 42.648702-43.151719l28.007298-437.158176a17.964912 17.964912 0 0 0-26.911439-16.707368z" p-id="9799"></path></svg>